<?xml version="1.0" encoding="iso-8859-1"?>
<!-- Generator: Adobe Illustrator 19.0.0, SVG Export Plug-In . SVG Version: 6.00 Build 0)  -->
<svg version="1.1" id="Capa_1" xmlns="http://www.w3.org/2000/svg" xmlns:xlink="http://www.w3.org/1999/xlink" x="0px" y="0px"
	 viewBox="0 0 512 512" style="enable-background:new 0 0 512 512;" xml:space="preserve">
<path style="fill:#8697CB;" d="M467.862,300.138V172.676c0-17.364-14.071-31.435-31.435-31.435h-12.703v52.966H300.138v-52.966
	H75.573c-17.364,0-31.435,14.071-31.435,31.435v127.462L0,344.276h512L467.862,300.138z"/>
<path style="fill:#BDC3C7;" d="M423.724,0H317.793c-9.746,0-17.655,7.901-17.655,17.655V35.31v158.897h123.586V35.31
	c9.746,0,17.655-7.901,17.655-17.655S433.47,0,423.724,0z"/>
<polygon style="fill:#687492;" points="512,344.276 0,344.276 44.138,300.138 467.862,300.138 "/>
<g>
	<path style="fill:#8697CB;" d="M423.724,141.241v52.966H300.138v-52.966H75.573c-17.364,0-31.435,14.071-31.435,31.435v127.462
		h423.724V172.676c0-17.364-14.071-31.435-31.435-31.435H423.724z"/>
	<rect y="344.276" style="fill:#8697CB;" width="512" height="167.724"/>
</g>
<path style="fill:#ECF0F1;" d="M423.724,35.31v158.897H300.138V35.31V17.655C300.138,7.901,308.039,0,317.793,0l0,0
	c9.754,0,17.655,7.901,17.655,17.655V35.31H423.724z"/>
<g>
	<path style="fill:#BDC3C7;" d="M423.724,0H317.793c9.746,0,17.655,7.901,17.655,17.655V35.31h88.276
		c9.746,0,17.655-7.901,17.655-17.655S433.47,0,423.724,0z"/>
	<path style="fill:#BDC3C7;" d="M388.414,88.276h-8.828c-4.873,0-8.828-3.955-8.828-8.828c0-4.873,3.955-8.828,8.828-8.828h8.828
		c4.873,0,8.828,3.955,8.828,8.828C397.241,84.321,393.287,88.276,388.414,88.276z"/>
	<path style="fill:#BDC3C7;" d="M388.414,123.586h-8.828c-4.873,0-8.828-3.955-8.828-8.828s3.955-8.828,8.828-8.828h8.828
		c4.873,0,8.828,3.955,8.828,8.828S393.287,123.586,388.414,123.586z"/>
	<path style="fill:#BDC3C7;" d="M344.276,88.276h-8.828c-4.873,0-8.828-3.955-8.828-8.828c0-4.873,3.955-8.828,8.828-8.828h8.828
		c4.873,0,8.828,3.955,8.828,8.828C353.103,84.321,349.149,88.276,344.276,88.276z"/>
	<path style="fill:#BDC3C7;" d="M344.276,123.586h-8.828c-4.873,0-8.828-3.955-8.828-8.828s3.955-8.828,8.828-8.828h8.828
		c4.873,0,8.828,3.955,8.828,8.828S349.149,123.586,344.276,123.586z"/>
	<path style="fill:#BDC3C7;" d="M388.414,158.897h-8.828c-4.873,0-8.828-3.955-8.828-8.828c0-4.873,3.955-8.828,8.828-8.828h8.828
		c4.873,0,8.828,3.955,8.828,8.828C397.241,154.942,393.287,158.897,388.414,158.897z"/>
	<path style="fill:#BDC3C7;" d="M344.276,158.897h-8.828c-4.873,0-8.828-3.955-8.828-8.828c0-4.873,3.955-8.828,8.828-8.828h8.828
		c4.873,0,8.828,3.955,8.828,8.828C353.103,154.942,349.149,158.897,344.276,158.897z"/>
</g>
<rect x="141.241" y="105.931" style="fill:#687492;" width="35.31" height="35.31"/>
<rect x="70.621" style="fill:#ECF0F1;" width="176.552" height="105.931"/>
<rect x="105.931" y="35.31" style="fill:#4482C3;" width="105.931" height="35.31"/>
<rect y="414.897" style="fill:#ECF0F1;" width="512" height="97.103"/>
<path style="fill:#BDC3C7;" d="M308.966,485.517H203.034c-19.474,0-35.31-15.837-35.31-35.31c0-4.873,3.955-8.828,8.828-8.828
	c4.873,0,8.828,3.955,8.828,8.828c0,9.737,7.918,17.655,17.655,17.655h105.931c9.737,0,17.655-7.918,17.655-17.655
	c0-4.873,3.955-8.828,8.828-8.828s8.828,3.955,8.828,8.828C344.276,469.681,328.439,485.517,308.966,485.517z"/>
<g>
	<path style="fill:#687492;" d="M158.897,388.414H35.31c-4.873,0-8.828-3.955-8.828-8.828s3.955-8.828,8.828-8.828h123.586
		c4.873,0,8.828,3.955,8.828,8.828S163.769,388.414,158.897,388.414z"/>
	<path style="fill:#687492;" d="M379.586,388.414H256c-4.873,0-8.828-3.955-8.828-8.828s3.955-8.828,8.828-8.828h123.586
		c4.873,0,8.828,3.955,8.828,8.828S384.459,388.414,379.586,388.414z"/>
	<path style="fill:#687492;" d="M220.69,388.414h-26.483c-4.873,0-8.828-3.955-8.828-8.828s3.955-8.828,8.828-8.828h26.483
		c4.873,0,8.828,3.955,8.828,8.828S225.562,388.414,220.69,388.414z"/>
	<path style="fill:#687492;" d="M476.69,388.414h-61.793c-4.873,0-8.828-3.955-8.828-8.828s3.955-8.828,8.828-8.828h61.793
		c4.873,0,8.828,3.955,8.828,8.828S481.562,388.414,476.69,388.414z"/>
</g>
<rect x="79.448" y="176.552" style="fill:#FFFFFF;" width="176.552" height="88.276"/>
<g>
	<rect x="114.759" y="203.034" style="fill:#4482C3;" width="35.31" height="35.31"/>
	<rect x="185.379" y="203.034" style="fill:#4482C3;" width="35.31" height="35.31"/>
</g>
<g>
	<rect x="291.31" y="194.207" style="fill:#687492;" width="141.241" height="35.31"/>
	<path style="fill:#687492;" d="M370.759,273.655H291.31c-4.873,0-8.828-3.955-8.828-8.828S286.438,256,291.31,256h79.448
		c4.873,0,8.828,3.955,8.828,8.828S375.631,273.655,370.759,273.655z"/>
	<path style="fill:#687492;" d="M432.552,273.655h-26.483c-4.873,0-8.828-3.955-8.828-8.828s3.955-8.828,8.828-8.828h26.483
		c4.873,0,8.828,3.955,8.828,8.828S437.425,273.655,432.552,273.655z"/>
</g>
<g>
</g>
<g>
</g>
<g>
</g>
<g>
</g>
<g>
</g>
<g>
</g>
<g>
</g>
<g>
</g>
<g>
</g>
<g>
</g>
<g>
</g>
<g>
</g>
<g>
</g>
<g>
</g>
<g>
</g>
</svg>
