<?xml version="1.0" encoding="iso-8859-1"?>
<!-- Generator: Adobe Illustrator 19.0.0, SVG Export Plug-In . SVG Version: 6.00 Build 0)  -->
<svg version="1.1" id="Layer_1" xmlns="http://www.w3.org/2000/svg" xmlns:xlink="http://www.w3.org/1999/xlink" x="0px" y="0px"
	 viewBox="0 0 460 460" style="enable-background:new 0 0 460 460;" xml:space="preserve">
<g>
	<path style="fill:#366796;" d="M230,0C102.974,0,0,102.975,0,230c0,97.323,60.448,180.529,145.848,214.119L457.929,199
		C442.79,86.635,346.512,0,230,0z"/>
	<path style="fill:#273B7A;" d="M457.914,199.002l-148.85-148.85l-237.18,320l73.964,73.964C171.911,454.367,200.297,460,230,460
		c127.025,0,230-102.975,230-230C460,219.486,459.28,209.142,457.914,199.002z"/>
	<polygon style="fill:#5488A8;" points="240,200.152 230,370.152 138.757,370.152 150.936,218.065 166.768,210.152 	"/>
	<polygon style="fill:#61A2B3;" points="150.936,218.065 150.936,370.152 71.884,370.152 71.884,210.152 135.115,210.152 	"/>
	<polygon style="fill:#C2FBFF;" points="166.768,257.631 135.115,257.631 135.115,210.152 150.948,210.152 158.858,200.152 
		166.768,210.152 	"/>
	<polygon style="fill:#5488A8;" points="388.116,210.152 388.116,370.152 296.873,370.152 309.052,218.065 324.885,210.152 	"/>
	<polygon style="fill:#61A2B3;" points="309.052,218.065 309.052,370.152 230,370.152 230,200.152 293.232,210.152 	"/>
	<polygon style="fill:#C2FBFF;" points="324.885,257.631 293.232,257.631 293.232,210.152 301.148,200.152 309.064,210.152 
		324.885,210.152 	"/>
	<polygon style="fill:#5488A8;" points="309.064,50.152 309.064,210.152 217.821,210.152 230,58.066 245.832,50.152 	"/>
	<polygon style="fill:#61A2B3;" points="230,58.066 230,210.152 150.948,210.152 150.948,50.152 214.18,50.152 	"/>
	<rect x="214.18" y="50.152" style="fill:#C2FBFF;" width="31.653" height="47.479"/>
</g>
<g>
</g>
<g>
</g>
<g>
</g>
<g>
</g>
<g>
</g>
<g>
</g>
<g>
</g>
<g>
</g>
<g>
</g>
<g>
</g>
<g>
</g>
<g>
</g>
<g>
</g>
<g>
</g>
<g>
</g>
</svg>
