<?xml version="1.0" encoding="iso-8859-1"?>
<!-- Generator: Adobe Illustrator 19.0.0, SVG Export Plug-In . SVG Version: 6.00 Build 0)  -->
<svg version="1.1" id="Capa_1" xmlns="http://www.w3.org/2000/svg" xmlns:xlink="http://www.w3.org/1999/xlink" x="0px" y="0px"
	 viewBox="0 0 512 512" style="enable-background:new 0 0 512 512;" xml:space="preserve">
<g>
	<path style="fill:#E4C05C;" d="M512,432.552v70.621c-0.014,4.869-3.958,8.813-8.828,8.828H8.828
		c-2.928-0.03-5.66-1.478-7.328-3.884c-0.994-1.456-1.517-3.181-1.5-4.943V8.828C0.015,3.958,3.959,0.014,8.828,0h70.621
		c4.869,0.014,8.813,3.958,8.828,8.828v406.069c-0.023,2.348,0.9,4.607,2.56,6.267c1.66,1.66,3.919,2.583,6.267,2.56h406.069
		C508.042,423.738,511.986,427.682,512,432.552z"/>
	<path style="fill:#F3D55B;" d="M90.836,421.164l-2.56,2.56L5.121,506.88L1.5,508.116c-0.994-1.456-1.517-3.181-1.5-4.943V8.828
		C0.015,3.958,3.959,0.014,8.828,0h70.621c4.869,0.014,8.813,3.958,8.828,8.828v406.069
		C88.276,417.24,89.196,419.491,90.836,421.164L90.836,421.164z"/>
	<g>
		<path style="fill:#B19046;" d="M88.276,35.311v17.655H44.138c-4.875,0-8.828-3.952-8.828-8.828s3.952-8.828,8.828-8.828H88.276z"
			/>
		<path style="fill:#B19046;" d="M88.276,211.862v17.655H44.138c-4.875,0-8.828-3.952-8.828-8.828s3.952-8.828,8.828-8.828H88.276z"
			/>
		<path style="fill:#B19046;" d="M88.276,388.414v17.655H44.138c-4.875,0-8.828-3.952-8.828-8.828s3.952-8.828,8.828-8.828H88.276z"
			/>
		<path style="fill:#B19046;" d="M88.276,70.621v17.655H61.794c-4.875,0-8.828-3.952-8.828-8.828c0-4.875,3.952-8.828,8.828-8.828
			H88.276z"/>
		<path style="fill:#B19046;" d="M88.276,105.931v17.655H61.794c-4.875,0-8.828-3.952-8.828-8.828s3.952-8.828,8.828-8.828H88.276z"
			/>
		<path style="fill:#B19046;" d="M88.276,141.242v17.655H61.794c-4.875,0-8.828-3.952-8.828-8.828s3.952-8.828,8.828-8.828H88.276z"
			/>
		<path style="fill:#B19046;" d="M88.276,176.552v17.655H61.794c-4.875,0-8.828-3.952-8.828-8.828s3.952-8.828,8.828-8.828H88.276z"
			/>
		<path style="fill:#B19046;" d="M88.276,247.173v17.655H61.794c-4.875,0-8.828-3.952-8.828-8.828c0-4.875,3.952-8.828,8.828-8.828
			H88.276z"/>
		<path style="fill:#B19046;" d="M88.276,282.483v17.655H61.794c-4.875,0-8.828-3.952-8.828-8.828s3.952-8.828,8.828-8.828H88.276z"
			/>
		<path style="fill:#B19046;" d="M88.276,317.793v17.655H61.794c-4.875,0-8.828-3.952-8.828-8.828c0-4.875,3.952-8.828,8.828-8.828
			H88.276z"/>
		<path style="fill:#B19046;" d="M88.276,353.104v17.655H61.794c-4.875,0-8.828-3.952-8.828-8.828s3.952-8.828,8.828-8.828H88.276z"
			/>
		<path style="fill:#B19046;" d="M123.587,423.724v44.138c0,4.875-3.952,8.828-8.828,8.828s-8.828-3.952-8.828-8.828v-44.138
			H123.587z"/>
		<path style="fill:#B19046;" d="M300.138,423.724v44.138c0,4.875-3.952,8.828-8.828,8.828s-8.828-3.952-8.828-8.828v-44.138
			H300.138z"/>
		<path style="fill:#B19046;" d="M476.69,423.724v44.138c0,4.875-3.952,8.828-8.828,8.828s-8.828-3.952-8.828-8.828v-44.138H476.69z
			"/>
		<path style="fill:#B19046;" d="M158.897,423.724v26.483c0,4.875-3.952,8.828-8.828,8.828s-8.828-3.952-8.828-8.828v-26.483
			H158.897z"/>
		<path style="fill:#B19046;" d="M194.207,423.724v26.483c0,4.875-3.952,8.828-8.828,8.828c-4.875,0-8.828-3.952-8.828-8.828
			v-26.483H194.207z"/>
		<path style="fill:#B19046;" d="M229.518,423.724v26.483c0,4.875-3.952,8.828-8.828,8.828s-8.828-3.952-8.828-8.828v-26.483
			H229.518z"/>
		<path style="fill:#B19046;" d="M264.828,423.724v26.483c0,4.875-3.952,8.828-8.828,8.828c-4.875,0-8.828-3.952-8.828-8.828
			v-26.483H264.828z"/>
		<path style="fill:#B19046;" d="M335.449,423.724v26.483c0,4.875-3.952,8.828-8.828,8.828s-8.828-3.952-8.828-8.828v-26.483
			H335.449z"/>
		<path style="fill:#B19046;" d="M370.759,423.724v26.483c0,4.875-3.952,8.828-8.828,8.828s-8.828-3.952-8.828-8.828v-26.483
			H370.759z"/>
		<path style="fill:#B19046;" d="M406.069,423.724v26.483c0,4.875-3.952,8.828-8.828,8.828s-8.828-3.952-8.828-8.828v-26.483
			H406.069z"/>
		<path style="fill:#B19046;" d="M441.38,423.724v26.483c0,4.875-3.952,8.828-8.828,8.828s-8.828-3.952-8.828-8.828v-26.483H441.38z
			"/>
	</g>
	<polygon style="fill:#547580;" points="512,88.276 512,264.828 344.276,353.104 176.552,264.828 176.552,88.276 344.276,0 	"/>
	<path style="fill:#35495E;" d="M344.276,189.264v163.84l-167.724-88.276V93.396l163.31,94.632
		C341.203,188.813,342.723,189.239,344.276,189.264z"/>
	<path style="fill:#84B5CB;" d="M512,88.276v5.12l-163.31,94.632c-2.712,1.648-6.116,1.648-8.828,0l-163.31-94.632v-5.12L344.276,0
		L512,88.276z"/>
</g>
<g>
</g>
<g>
</g>
<g>
</g>
<g>
</g>
<g>
</g>
<g>
</g>
<g>
</g>
<g>
</g>
<g>
</g>
<g>
</g>
<g>
</g>
<g>
</g>
<g>
</g>
<g>
</g>
<g>
</g>
</svg>
